{
  "source": "C:\\Users\\Peter\\Desktop\\stuff\\MIUN\\quantitative_research\\video_compression\\videos\\UVG\\ShakeNDry_1920x1080_120fps_420_8bit_YUV.y4m",
  "output": "C:\\Users\\Peter\\Desktop\\stuff\\MIUN\\quantitative_research\\video_compression\\compressed_videos\\UVG\\vp9\\12\\ShakeNDry_1920x1080_120fps_420_8bit_YUV_vp9.webm",
  "codec": "vp9",
  "ok": "[yuv4mpegpipe @ 000001d98d2d54c0] Stream #0: not enough frames to estimate rate; consider increasing probesize\nInput #0, yuv4mpegpipe, from 'C:\\Users\\Peter\\Desktop\\stuff\\MIUN\\quantitative_research\\video_compression\\videos\\UVG\\ShakeNDry_1920x1080_120fps_420_8bit_YUV.y4m':\n  Duration: 00:00:02.50, start: 0.000000, bitrate: 2985989 kb/s\n  Stream #0:0: Video: rawvideo (I420 / 0x30323449), yuv420p(progressive), 1920x1080, 120 fps, 120 tbr, 120 tbn\n[out#0/webm @ 000001d98d2d9480] Codec AVOption b:a (set bitrate (in bits/s)) has not been used for any stream. The most likely reason is either wrong type (e.g. a video option with no video streams) or that it is a private option of some decoder which was not actually used for any stream.\nStream mapping:\n  Stream #0:0 -> #0:0 (rawvideo (native) -> vp9 (libvpx-vp9))\nPress [q] to stop, [?] for help\n[libvpx-vp9 @ 000001d98d2dc4c0] v1.15.2-100-g40561f514\nOutput #0, webm, to 'C:\\Users\\Peter\\Desktop\\stuff\\MIUN\\quantitative_research\\video_compression\\compressed_videos\\UVG\\vp9\\12\\ShakeNDry_1920x1080_120fps_420_8bit_YUV_vp9.webm':\n  Metadata:\n    encoder         : Lavf62.3.100\n  Stream #0:0: Video: vp9, yuv420p(tv, progressive), 1920x1080, q=2-31, 12000 kb/s, 120 fps, 1k tbn\n    Metadata:\n      encoder         : Lavc62.11.100 libvpx-vp9\n    Side data:\n      cpb: bitrate max/min/avg: 0/0/0 buffer size: 12000000 vbv_delay: N/A\nframe=    0 fps=0.0 q=0.0 size=       0KiB time=N/A bitrate=N/A speed=N/A elapsed=0:00:00.51    \nframe=    4 fps=3.8 q=54.0 size=       0KiB time=00:00:00.03 bitrate= 115.4kbits/s speed=0.0313x elapsed=0:00:01.06    \nframe=    8 fps=5.0 q=48.0 size=       0KiB time=00:00:00.06 bitrate=  57.7kbits/s speed=0.0417x elapsed=0:00:01.59    \nframe=   10 fps=4.6 q=47.0 size=       0KiB time=00:00:00.08 bitrate=  46.2kbits/s speed=0.0384x elapsed=0:00:02.17    \nframe=   13 fps=4.8 q=47.0 size=       0KiB time=00:00:00.10 bitrate=  35.5kbits/s speed=0.0399x elapsed=0:00:02.71    \nframe=   15 fps=4.6 q=47.0 size=       0KiB time=00:00:00.12 bitrate=  30.8kbits/s speed=0.0381x elapsed=0:00:03.28    \nframe=   18 fps=4.7 q=47.0 size=       0KiB time=00:00:00.15 bitrate=  25.7kbits/s speed=0.039x elapsed=0:00:03.84    \nframe=   21 fps=4.7 q=47.0 size=       0KiB time=00:00:00.17 bitrate=  22.0kbits/s speed=0.0395x elapsed=0:00:04.42    \nframe=   25 fps=5.1 q=47.0 size=       0KiB time=00:00:00.20 bitrate=  19.2kbits/s speed=0.0405x elapsed=0:00:04.94    \nframe=   28 fps=5.0 q=47.0 size=       0KiB time=00:00:00.23 bitrate=  16.5kbits/s speed=0.0417x elapsed=0:00:05.59    \nframe=   30 fps=4.8 q=47.0 size=       0KiB time=00:00:00.25 bitrate=  15.4kbits/s speed=0.0402x elapsed=0:00:06.21    \nframe=   32 fps=4.7 q=47.0 size=       0KiB time=00:00:00.26 bitrate=  14.4kbits/s speed=0.0389x elapsed=0:00:06.86    \nframe=   34 fps=4.6 q=47.0 size=       0KiB time=00:00:00.28 bitrate=  13.6kbits/s speed=0.0383x elapsed=0:00:07.40    \nframe=   38 fps=4.8 q=47.0 size=       0KiB time=00:00:00.31 bitrate=  12.2kbits/s speed=0.0399x elapsed=0:00:07.93    \nframe=   41 fps=4.8 q=47.0 size=       0KiB time=00:00:00.34 bitrate=  11.3kbits/s speed=0.0402x elapsed=0:00:08.49    \nframe=   44 fps=4.8 q=47.0 size=       0KiB time=00:00:00.36 bitrate=  10.5kbits/s speed=0.0401x elapsed=0:00:09.15    \nframe=   46 fps=4.7 q=28.0 size=       0KiB time=00:00:00.38 bitrate=  10.0kbits/s speed=0.0392x elapsed=0:00:09.77    \nframe=   49 fps=4.7 q=47.0 size=       0KiB time=00:00:00.40 bitrate=   9.4kbits/s speed=0.0394x elapsed=0:00:10.35    \nframe=   52 fps=4.7 q=47.0 size=       0KiB time=00:00:00.43 bitrate=   8.9kbits/s speed=0.0395x elapsed=0:00:10.96    \nframe=   55 fps=4.8 q=47.0 size=       0KiB time=00:00:00.45 bitrate=   8.4kbits/s speed=0.0398x elapsed=0:00:11.52    \nframe=   58 fps=4.8 q=47.0 size=       0KiB time=00:00:00.48 bitrate=   8.0kbits/s speed=0.04x elapsed=0:00:12.08    \nframe=   60 fps=4.8 q=47.0 size=       0KiB time=00:00:00.50 bitrate=   7.7kbits/s speed=0.0396x elapsed=0:00:12.61    \nframe=   62 fps=4.7 q=48.0 size=       0KiB time=00:00:00.51 bitrate=   7.4kbits/s speed=0.0391x elapsed=0:00:13.21    \nframe=   65 fps=4.7 q=47.0 size=       0KiB time=00:00:00.54 bitrate=   7.1kbits/s speed=0.0393x elapsed=0:00:13.79    \nframe=   68 fps=4.7 q=47.0 size=       0KiB time=00:00:00.56 bitrate=   6.8kbits/s speed=0.0395x elapsed=0:00:14.36    \nframe=   71 fps=4.8 q=47.0 size=       0KiB time=00:00:00.59 bitrate=   6.5kbits/s speed=0.0398x elapsed=0:00:14.87    \nframe=   75 fps=4.9 q=47.0 size=       0KiB time=00:00:00.62 bitrate=   6.2kbits/s speed=0.0405x elapsed=0:00:15.43    \nframe=   77 fps=4.8 q=47.0 size=       0KiB time=00:00:00.63 bitrate=   6.1kbits/s speed=0.0396x elapsed=0:00:16.01    \nframe=   80 fps=4.8 q=47.0 size=       0KiB time=00:00:00.65 bitrate=   5.8kbits/s speed=0.0395x elapsed=0:00:16.66    \nframe=   82 fps=4.7 q=46.0 size=       0KiB time=00:00:00.68 bitrate=   5.6kbits/s speed=0.0395x elapsed=0:00:17.28    \nframe=   85 fps=4.8 q=46.0 size=       0KiB time=00:00:00.70 bitrate=   5.4kbits/s speed=0.0397x elapsed=0:00:17.84    \nframe=   89 fps=4.8 q=46.0 size=       0KiB time=00:00:00.74 bitrate=   5.2kbits/s speed=0.0403x elapsed=0:00:18.41    \nframe=   91 fps=4.8 q=27.0 size=       0KiB time=00:00:00.75 bitrate=   5.1kbits/s speed=0.0399x elapsed=0:00:19.02    \nframe=   94 fps=4.8 q=46.0 size=       0KiB time=00:00:00.78 bitrate=   4.9kbits/s speed=0.04x elapsed=0:00:19.60    \nframe=   97 fps=4.8 q=46.0 size=       0KiB time=00:00:00.80 bitrate=   4.8kbits/s speed=0.0399x elapsed=0:00:20.24    \nframe=  101 fps=4.9 q=45.0 size=       0KiB time=00:00:00.84 bitrate=   4.6kbits/s speed=0.0405x elapsed=0:00:20.78    \nframe=  105 fps=4.9 q=45.0 size=       0KiB time=00:00:00.86 bitrate=   4.4kbits/s speed=0.0406x elapsed=0:00:21.34    \nframe=  107 fps=4.9 q=47.0 size=       0KiB time=00:00:00.89 bitrate=   4.3kbits/s speed=0.0406x elapsed=0:00:21.94    \nframe=  110 fps=4.9 q=46.0 size=       0KiB time=00:00:00.91 bitrate=   4.2kbits/s speed=0.0408x elapsed=0:00:22.48    \nframe=  113 fps=4.9 q=46.0 size=       0KiB time=00:00:00.94 bitrate=   4.1kbits/s speed=0.0409x elapsed=0:00:23.02    \nframe=  116 fps=4.9 q=45.0 size=       0KiB time=00:00:00.96 bitrate=   4.0kbits/s speed=0.041x elapsed=0:00:23.55    \nframe=  120 fps=5.0 q=45.0 size=       0KiB time=00:00:01.00 bitrate=   3.8kbits/s speed=0.0415x elapsed=0:00:24.10    \nframe=  123 fps=5.0 q=45.0 size=       0KiB time=00:00:01.02 bitrate=   3.8kbits/s speed=0.0416x elapsed=0:00:24.65    \nframe=  127 fps=5.0 q=44.0 size=       0KiB time=00:00:01.05 bitrate=   3.7kbits/s speed=0.0417x elapsed=0:00:25.18    \nframe=  130 fps=5.0 q=42.0 size=    1280KiB time=00:00:01.07 bitrate=9754.2kbits/s speed=0.0417x elapsed=0:00:25.78    \nframe=  133 fps=5.0 q=43.0 size=    1280KiB time=00:00:01.10 bitrate=9460.8kbits/s speed=0.042x elapsed=0:00:26.39    \nframe=  136 fps=5.1 q=42.0 size=    1280KiB time=00:00:01.13 bitrate=9252.1kbits/s speed=0.0421x elapsed=0:00:26.90    \nframe=  141 fps=5.1 q=41.0 size=    1280KiB time=00:00:01.17 bitrate=8924.1kbits/s speed=0.0429x elapsed=0:00:27.41    \nframe=  143 fps=5.1 q=41.0 size=    1280KiB time=00:00:01.19 bitrate=8799.2kbits/s speed=0.0426x elapsed=0:00:28.00    \nframe=  147 fps=5.1 q=40.0 size=    1280KiB time=00:00:01.22 bitrate=8559.8kbits/s speed=0.0428x elapsed=0:00:28.61    \nframe=  151 fps=5.2 q=38.0 size=    1280KiB time=00:00:01.25 bitrate=8333.1kbits/s speed=0.0431x elapsed=0:00:29.20    \nframe=  155 fps=5.2 q=38.0 size=    1280KiB time=00:00:01.29 bitrate=8118.0kbits/s speed=0.0434x elapsed=0:00:29.73    \nframe=  158 fps=5.2 q=37.0 size=    1280KiB time=00:00:01.31 bitrate=7963.9kbits/s speed=0.0435x elapsed=0:00:30.29    \nframe=  162 fps=5.2 q=36.0 size=    1280KiB time=00:00:01.35 bitrate=7767.2kbits/s speed=0.0437x elapsed=0:00:30.87    \nframe=  167 fps=5.3 q=35.0 size=    1280KiB time=00:00:01.39 bitrate=7534.7kbits/s speed=0.0443x elapsed=0:00:31.39    \nframe=  172 fps=5.4 q=34.0 size=    1280KiB time=00:00:01.43 bitrate=7315.6kbits/s speed=0.0449x elapsed=0:00:31.94    \nframe=  175 fps=5.4 q=34.0 size=    1280KiB time=00:00:01.45 bitrate=7190.2kbits/s speed=0.0449x elapsed=0:00:32.51    \nframe=  179 fps=5.4 q=32.0 size=    1280KiB time=00:00:01.49 bitrate=7029.6kbits/s speed=0.0451x elapsed=0:00:33.05    \nframe=  182 fps=5.4 q=32.0 size=    1280KiB time=00:00:01.51 bitrate=6913.7kbits/s speed=0.0452x elapsed=0:00:33.59    \nframe=  186 fps=5.5 q=32.0 size=    1280KiB time=00:00:01.54 bitrate=6801.6kbits/s speed=0.0452x elapsed=0:00:34.11    \nframe=  188 fps=5.4 q=32.0 size=    1280KiB time=00:00:01.56 bitrate=6693.0kbits/s speed=0.045x elapsed=0:00:34.79    \nframe=  190 fps=5.3 q=32.0 size=    1280KiB time=00:00:01.58 bitrate=6622.6kbits/s speed=0.0444x elapsed=0:00:35.63    \nframe=  195 fps=5.4 q=31.0 size=    1280KiB time=00:00:01.61 bitrate=6486.0kbits/s speed=0.0447x elapsed=0:00:36.16    \nframe=  200 fps=5.4 q=31.0 size=    1280KiB time=00:00:01.66 bitrate=6291.5kbits/s speed=0.0453x elapsed=0:00:36.80    \nframe=  203 fps=5.4 q=31.0 size=    1280KiB time=00:00:01.69 bitrate=6198.5kbits/s speed=0.0453x elapsed=0:00:37.37    \nframe=  207 fps=5.5 q=30.0 size=    1280KiB time=00:00:01.72 bitrate=6078.7kbits/s speed=0.0454x elapsed=0:00:37.96    \nframe=  212 fps=5.5 q=30.0 size=    1280KiB time=00:00:01.75 bitrate=5963.5kbits/s speed=0.0457x elapsed=0:00:38.50    \nframe=  215 fps=5.5 q=30.0 size=    1280KiB time=00:00:01.79 bitrate=5852.5kbits/s speed=0.0458x elapsed=0:00:39.15    \nframe=  218 fps=5.5 q=30.0 size=    1280KiB time=00:00:01.81 bitrate=5772.0kbits/s speed=0.0457x elapsed=0:00:39.78    \nframe=  222 fps=5.5 q=29.0 size=    1280KiB time=00:00:01.85 bitrate=5668.0kbits/s speed=0.0456x elapsed=0:00:40.54    \nframe=  227 fps=5.5 q=29.0 size=    1280KiB time=00:00:01.89 bitrate=5543.1kbits/s speed=0.046x elapsed=0:00:41.12    \nframe=  231 fps=5.5 q=29.0 size=    1280KiB time=00:00:01.92 bitrate=5447.1kbits/s speed=0.0461x elapsed=0:00:41.72    \nframe=  233 fps=5.5 q=29.0 size=    1280KiB time=00:00:01.94 bitrate=5400.4kbits/s speed=0.0458x elapsed=0:00:42.37    \nframe=  238 fps=5.5 q=31.0 size=    1280KiB time=00:00:01.98 bitrate=5286.9kbits/s speed=0.0461x elapsed=0:00:42.97    \nframe=  242 fps=5.6 q=31.0 size=    1280KiB time=00:00:02.01 bitrate=5199.5kbits/s speed=0.0463x elapsed=0:00:43.55    \nframe=  244 fps=5.5 q=31.0 size=    1280KiB time=00:00:02.03 bitrate=5156.9kbits/s speed=0.0461x elapsed=0:00:44.10    \nframe=  248 fps=5.6 q=27.0 size=    1280KiB time=00:00:02.06 bitrate=5073.8kbits/s speed=0.0463x elapsed=0:00:44.66    \nframe=  252 fps=5.6 q=28.0 size=    1280KiB time=00:00:02.09 bitrate=5013.1kbits/s speed=0.0462x elapsed=0:00:45.28    \nframe=  255 fps=5.6 q=29.0 size=    1280KiB time=00:00:02.12 bitrate=4934.5kbits/s speed=0.0463x elapsed=0:00:45.87    \nframe=  257 fps=5.5 q=14.0 size=    1280KiB time=00:00:02.14 bitrate=4896.1kbits/s speed=0.0461x elapsed=0:00:46.49    \nframe=  262 fps=5.6 q=27.0 size=    2816KiB time=00:00:02.17 bitrate=10606.3kbits/s speed=0.0462x elapsed=0:00:47.03    \nframe=  266 fps=5.6 q=27.0 size=    2816KiB time=00:00:02.21 bitrate=10406.9kbits/s speed=0.0465x elapsed=0:00:47.62    \nframe=  270 fps=5.6 q=26.0 size=    2816KiB time=00:00:02.25 bitrate=10252.7kbits/s speed=0.0467x elapsed=0:00:48.21    \nframe=  271 fps=5.6 q=26.0 size=    2816KiB time=00:00:02.25 bitrate=10214.9kbits/s speed=0.0463x elapsed=0:00:48.76    \nframe=  274 fps=5.6 q=26.0 size=    2816KiB time=00:00:02.28 bitrate=10103.1kbits/s speed=0.0463x elapsed=0:00:49.32    \nframe=  276 fps=5.5 q=25.0 size=    2816KiB time=00:00:02.30 bitrate=10029.9kbits/s speed=0.0461x elapsed=0:00:49.88    \nframe=  276 fps=5.5 q=25.0 size=    2816KiB time=00:00:02.30 bitrate=10029.9kbits/s speed=0.0456x elapsed=0:00:50.47    \nframe=  276 fps=5.4 q=25.0 size=    2816KiB time=00:00:02.30 bitrate=10029.9kbits/s speed=0.0451x elapsed=0:00:51.01    \nframe=  276 fps=5.3 q=25.0 size=    2816KiB time=00:00:02.30 bitrate=10029.9kbits/s speed=0.0446x elapsed=0:00:51.58    \nframe=  276 fps=5.3 q=25.0 size=    2816KiB time=00:00:02.30 bitrate=10029.9kbits/s speed=0.0441x elapsed=0:00:52.15    \nframe=  276 fps=5.2 q=25.0 size=    2816KiB time=00:00:02.30 bitrate=10029.9kbits/s speed=0.0435x elapsed=0:00:52.81    \nframe=  276 fps=5.2 q=25.0 size=    2816KiB time=00:00:02.30 bitrate=10029.9kbits/s speed=0.043x elapsed=0:00:53.42    \nframe=  276 fps=5.1 q=25.0 size=    2816KiB time=00:00:02.30 bitrate=10029.9kbits/s speed=0.0426x elapsed=0:00:53.97    \nframe=  276 fps=5.1 q=25.0 size=    2816KiB time=00:00:02.30 bitrate=10029.9kbits/s speed=0.0421x elapsed=0:00:54.56    \nframe=  276 fps=5.0 q=25.0 size=    2816KiB time=00:00:02.30 bitrate=10029.9kbits/s speed=0.0417x elapsed=0:00:55.11    \n[out#0/webm @ 000001d98d2d9480] video:3616KiB audio:0KiB subtitle:0KiB other streams:0KiB global headers:0KiB muxing overhead: 0.072810%\nframe=  300 fps=5.4 q=13.0 Lsize=    3619KiB time=00:00:02.50 bitrate=11857.5kbits/s speed=0.0452x elapsed=0:00:55.29    \n",
  "seconds": 55.63317155838013,
  "probe_out": {}
}